<svg width="129" height="41" viewBox="0 0 129 41" fill="none" xmlns="http://www.w3.org/2000/svg">
<path d="M94.25 33.2301C91.077 33.2301 88.603 31.9231 87.016 29.5421V32.7621H80.434V0.663086H87.016V13.0641C88.603 10.6841 91.076 9.37609 94.251 9.37609C100.179 9.37609 104.894 14.6981 104.894 21.2791C104.894 27.8611 100.179 33.2291 94.251 33.2291L94.25 33.2301ZM92.757 15.6321C89.536 15.6321 87.016 18.1051 87.016 21.2791C87.016 24.5011 89.536 26.9271 92.756 26.9271C95.932 26.9271 98.499 24.4541 98.499 21.2791C98.499 18.1521 95.932 15.6321 92.757 15.6321Z" fill="#FCFCFA"/>
<path d="M128.078 9.84309L115.334 40.3721H108.286L112.533 30.8961L103.711 9.84309H110.806L115.894 23.2401L120.984 9.84309H128.078Z" fill="#FCFCFA"/>
<path d="M77.395 32.7631H70.813V0.663086H77.395V32.7631Z" fill="#FCFCFA"/>
<path d="M68.194 32.7631H61.986V29.9161C60.632 32.1561 58.485 33.2301 55.451 33.2301C51.39 33.2301 48.355 30.1961 48.355 26.3681C48.355 21.5601 52.603 19.0381 59.045 19.0381H61.985V18.5251C61.985 16.4711 60.212 14.7431 57.598 14.7431C55.124 14.7431 52.697 16.0981 51.436 17.6851L47.842 13.8571C49.849 11.2421 53.77 9.37509 57.598 9.37509C64.087 9.37509 68.194 13.1571 68.194 18.6651V32.7631ZM61.986 23.1471H58.718C55.824 23.1471 54.097 24.0341 54.097 25.7611C54.097 27.1611 55.217 28.0951 56.991 28.0951C59.885 28.0951 61.986 26.1351 61.986 23.8471V23.1471Z" fill="#FCFCFA"/>
<path d="M46.017 19.7861V32.7631H39.435V20.6261C39.435 17.6391 37.615 15.6781 34.907 15.6781C32.153 15.6781 30.379 17.6391 30.379 20.6261V32.7631H23.797V0.663086H30.379V12.8311C31.826 10.6371 33.973 9.37609 36.589 9.37609C42.469 9.37609 46.017 13.2981 46.017 19.7861Z" fill="#FCFCFA"/>
<path d="M21.21 32.4831C20.37 32.9031 19.062 33.1361 17.848 33.1361C12.48 33.1361 8.699 29.7281 8.699 23.8001V0.663086H15.281V9.84309H20.929V16.0981H15.281V23.4731C15.281 25.6211 16.914 26.9741 18.828 26.9741C19.482 26.9741 20.369 26.8351 20.882 26.6481L21.21 32.4831Z" fill="#FCFCFA"/>
<path d="M7.435 12.9701C7.43506 13.4422 7.34214 13.9097 7.16153 14.3459C6.98093 14.7821 6.71618 15.1784 6.3824 15.5123C6.04862 15.8462 5.65234 16.111 5.2162 16.2917C4.78006 16.4725 4.3126 16.5655 3.8405 16.5656C3.36839 16.5657 2.9009 16.4727 2.46471 16.2921C2.02852 16.1115 1.63217 15.8468 1.2983 15.513C0.964427 15.1792 0.699566 14.7829 0.51884 14.3468C0.338113 13.9107 0.245061 13.4432 0.244995 12.9711C0.244995 12.0176 0.623753 11.1032 1.29795 10.429C1.97214 9.75484 2.88654 9.37609 3.83999 9.37609C4.79345 9.37609 5.70785 9.75484 6.38204 10.429C7.05624 11.1032 7.435 12.0166 7.435 12.9701Z" fill="#CCCC33"/>
</svg>
